<svg width="87" height="24" viewBox="0 0 87 24" fill="none" xmlns="http://www.w3.org/2000/svg">
<path d="M11.7847 6.47023L11.3136 6.16058L9.92514 0.182389L10.7254 0L12.0302 5.61845C12.2232 5.60238 12.4088 5.60081 12.5862 5.61372L13.8901 0L14.6903 0.182389L13.3019 6.16058L12.8123 6.46645C12.5185 6.40124 12.1729 6.4025 11.7847 6.47023Z" fill="#777575"/>
<path d="M9.06834 7.48518L8.50401 7.45053L4.2847 2.96106L4.88559 2.40665L8.85119 6.62584C9.01016 6.51622 9.17008 6.42298 9.33032 6.34643L7.62651 0.838862L8.41149 0.600403L10.2263 6.4655L9.95633 6.97298C9.66892 7.06212 9.37006 7.23443 9.06834 7.48518Z" fill="#777575"/>
<path d="M6.72192 9.95956L0.802302 8.1615L1.04266 7.38375L6.60619 9.07345C6.68854 8.89956 6.7801 8.73954 6.88025 8.59369L2.62502 4.6684L3.18458 4.07272L7.7161 8.25317L7.73836 8.82648C7.53456 9.04604 7.36288 9.34309 7.22776 9.70976" fill="#777575"/>
<path d="M0.410647 14.3907L0.226562 13.5979L5.89724 12.3051C5.88103 12.1136 5.87944 11.9296 5.89279 11.7538L0.226562 10.4623L0.410647 9.66943L6.44441 11.0451L6.75312 11.5302C6.68731 11.8212 6.68858 12.164 6.75693 12.5483L6.44441 13.0151" fill="#777575"/>
<path d="M3.21519 19.9793L2.65563 19.3836L6.91436 15.4548C6.8034 15.2973 6.70929 15.1386 6.63203 14.9798L1.07327 16.6682L0.832912 15.8905L6.75221 14.0924L7.26441 14.3599C7.35438 14.6446 7.52829 14.9404 7.78137 15.2397L7.74639 15.7988" fill="#777575"/>
<path d="M8.46421 23.4296L7.67891 23.1911L9.38431 17.6791C9.20881 17.5972 9.0473 17.5065 8.90042 17.4073L4.93832 21.6233L4.33742 21.0689L8.55641 16.5794L9.13505 16.5571C9.35665 16.759 9.65678 16.9294 10.0269 17.063L10.2787 17.5644" fill="#777575"/>
<path d="M13.9509 24L12.6461 18.3819C12.4521 18.3986 12.2674 18.4001 12.0897 18.3866L10.7861 24L9.9859 23.8176L11.374 17.8391L11.8639 17.5336C12.1577 17.5984 12.5033 17.5975 12.8915 17.5298L13.3627 17.8391L14.7511 23.8176" fill="#777575"/>
<path d="M16.2647 23.3993L14.4503 17.5345L14.7199 17.027C15.0073 16.9379 15.3062 16.7653 15.6079 16.5145L16.1722 16.5492L20.3915 21.0389L19.7906 21.5934L15.825 17.3738C15.6661 17.4835 15.5058 17.577 15.3459 17.6533L17.0497 23.1608" fill="#777575"/>
<path d="M21.4913 19.927L16.9601 15.7465L16.9378 15.1736C17.1416 14.954 17.3133 14.6566 17.4484 14.29L17.9542 14.0405L23.8739 15.8382L23.6335 16.6163L18.07 14.9266C17.9873 15.1005 17.8961 15.2605 17.7959 15.406L22.0508 19.3316" fill="#777575"/>
<path d="M24.2656 14.3303L18.2315 12.955L17.9231 12.4698C17.989 12.1785 17.9874 11.836 17.9193 11.4514L18.2315 10.9849L24.2656 9.60927L24.4497 10.4021L18.779 11.6949C18.7952 11.8861 18.7968 12.0701 18.7838 12.2459L24.4497 13.5377" fill="#777575"/>
<path d="M17.9241 9.90728L17.4119 9.64015C17.3219 9.35539 17.148 9.05928 16.895 8.76034L16.9299 8.20121L21.4611 4.02076L22.0207 4.61612L17.762 8.54488C17.8729 8.7027 17.967 8.86114 18.0443 9.01991L23.6031 7.33147L23.8437 8.10954" fill="#777575"/>
<path d="M15.5412 7.44265C15.3196 7.24074 15.0198 7.07063 14.6494 6.93675L14.3976 6.43527L16.212 0.570165L16.997 0.808625L15.2919 6.32092C15.4674 6.4025 15.6289 6.49323 15.7758 6.59245L19.7379 2.37641L20.3391 2.93082L16.1195 7.4206" fill="#777575"/>
<path d="M34.8328 9.2055H36.7965L32.7698 13.3523L36.6973 18.5408H34.6939L31.6193 14.4136L29.9928 16.0645V18.5408H28.4059V4.78352H29.9928V13.3916L29.4374 14.4529H29.7151L34.8328 9.2055Z" fill="#777575"/>
<path d="M40.3402 7.61358H38.5153V5.31416H40.3402V7.61358ZM40.2013 18.5408H38.6144V9.2055H40.2013V18.5408Z" fill="#777575"/>
<path d="M46.5521 18.8159C44.2511 18.8159 42.8626 17.5974 42.8626 15.6124V15.4945H44.4495V15.6124C44.4495 16.8309 45.2231 17.4599 46.6116 17.4599C47.3257 17.4599 47.8612 17.3026 48.1786 16.9882C48.4166 16.7523 48.5555 16.4379 48.5555 16.0841C48.5555 15.3176 48.0794 14.9049 46.9885 14.6887L45.719 14.4333C43.9536 14.0795 43.0213 13.2541 43.0213 11.7408C43.0213 10.9743 43.2791 10.365 43.7552 9.87371C44.3701 9.26446 45.3619 8.93035 46.6314 8.93035C48.9324 8.93035 50.301 10.1489 50.301 12.1535V12.2517H48.7142V12.1535C48.7142 10.935 47.9802 10.2668 46.5521 10.2668C45.838 10.2668 45.3024 10.424 44.9652 10.7581C44.747 10.9939 44.6081 11.3084 44.6081 11.6621C44.6081 12.409 45.1239 12.8217 46.1157 13.0182L47.4248 13.2934C49.2696 13.6668 50.1424 14.4726 50.1424 15.9859C50.1424 16.772 49.8845 17.3812 49.4084 17.8529C48.7935 18.4818 47.8017 18.8159 46.5521 18.8159Z" fill="#777575"/>
<path d="M54.6133 18.5408H53.0265V9.2055H54.6133L54.1968 11.8194H54.4547C54.9109 9.95232 55.9225 8.93035 57.5292 8.93035C59.0169 8.93035 60.1872 9.91301 60.1872 11.8194H60.4649C60.9013 9.73613 62.1113 8.93035 63.599 8.93035C65.6024 8.93035 66.6934 10.1882 66.6934 12.5662V18.5408H65.0867V12.9003C65.0867 11.2494 64.4123 10.3847 63.1428 10.3847C61.5559 10.3847 60.6435 11.6818 60.6435 13.6078V18.5408H59.0566V12.9003C59.0566 11.2494 58.2632 10.3847 57.0928 10.3847C55.4861 10.3847 54.6133 11.6818 54.6133 13.6078V18.5408Z" fill="#777575"/>
<path d="M77.8173 13.6078V14.2957H70.6169C70.6566 15.1015 70.8748 15.75 71.2318 16.261C71.7277 16.9882 72.5212 17.4009 73.632 17.4009C74.9015 17.4009 75.8536 16.772 76.2106 15.6911H77.7975C77.4405 17.4992 75.7742 18.8159 73.6716 18.8159C71.8666 18.8159 70.6169 18.187 69.8235 17.0471C69.2482 16.2414 68.9507 15.1801 68.9507 13.9223C68.9507 12.6055 69.3276 11.5246 69.9028 10.7188C70.6963 9.55925 71.9856 8.93035 73.4931 8.93035C76.2106 8.93035 77.8173 10.6795 77.8173 13.6078ZM70.6566 12.9789H76.1313C76.052 11.2691 75.0998 10.3257 73.4931 10.3257C72.5807 10.3257 71.7277 10.7384 71.212 11.4853C70.9343 11.8783 70.7558 12.3893 70.6566 12.9789Z" fill="#777575"/>
<path d="M86.772 9.2055V10.6205H82.428V15.6124C82.428 16.772 82.9437 17.4009 83.7966 17.4009C84.7884 17.4009 85.1852 16.772 85.1852 15.357V13.9223H86.772V15.3766C86.772 17.5385 85.7207 18.8159 83.8165 18.8159C81.813 18.8159 80.8411 17.7153 80.8411 15.6124V10.6205H78.8178V9.2055H80.8411V7.25983L82.428 6.49335V9.2055H86.772Z" fill="#777575"/>
</svg>
