<svg width="50" height="43" viewBox="0 0 50 43" fill="none" xmlns="http://www.w3.org/2000/svg">
<path d="M30.4688 4.375H19.5312C9.53125 4.375 1.40625 12.2656 1.40625 21.9531C1.40625 31.6406 7.65625 38.4375 22.9688 45.3125C23.3594 45.4688 23.6719 45.5469 24.0625 45.5469C24.6094 45.5469 25.0781 45.3906 25.5469 45.0781C26.3281 44.6094 26.7969 43.75 26.7969 42.8125V39.4531H30.4688C40.4688 39.4531 48.6719 31.5625 48.6719 21.875C48.6719 12.1875 40.4688 4.375 30.4688 4.375ZM30.4688 36.0938H25.9375C24.4531 36.0938 23.2031 37.3438 23.2031 38.8281V41.7188C10 35.625 4.84375 30 4.84375 22.0312C4.84375 14.2969 11.4063 7.96875 19.5312 7.96875H30.4688C38.5156 7.96875 45.1562 14.2969 45.1562 22.0312C45.1562 29.7656 38.5156 36.0938 30.4688 36.0938Z" fill="#111928"/>
<path d="M15.0781 20.2344C14.0625 20.2344 13.2812 21.0156 13.2812 22.0313C13.2812 23.0469 14.0625 23.8281 15.0781 23.8281C16.0937 23.8281 16.875 23.0469 16.875 22.0313C16.875 21.0156 16.0937 20.2344 15.0781 20.2344Z" fill="#111928"/>
<path d="M25 20.2344C23.9844 20.2344 23.2031 21.0156 23.2031 22.0313C23.2031 23.0469 23.9844 23.8281 25 23.8281C25.9375 23.8281 26.7969 23.0469 26.7969 22.0313C26.7969 21.0156 25.9375 20.2344 25 20.2344Z" fill="#111928"/>
<path d="M34.9219 20.2344C33.9062 20.2344 33.125 21.0156 33.125 22.0313C33.125 23.0469 33.9062 23.8281 34.9219 23.8281C35.9375 23.8281 36.7187 23.0469 36.7187 22.0313C36.7187 21.0156 35.8594 20.2344 34.9219 20.2344Z" fill="#111928"/>
</svg>
