<svg width="36" height="36" viewBox="0 0 36 36" fill="none" xmlns="http://www.w3.org/2000/svg">
<g clip-path="url(#clip0_4023_217)">
<path d="M30.0312 5.91431C26.8594 2.74243 22.5391 0.992432 18.1094 0.992432C8.8125 0.992432 1.21094 8.53931 1.21094 17.8362C1.21094 20.844 1.97656 23.6877 3.45312 26.3127L1.04688 35.0081L10.0703 32.7112C12.5312 34.0237 15.3203 34.7893 18.1641 34.7893C27.4062 34.7346 34.9531 27.1877 34.9531 17.8362C34.9531 13.3518 33.2031 9.14087 30.0312 5.91431ZM18.0547 31.8909C15.5937 31.8909 13.0234 31.1799 10.8906 29.8674L10.3438 29.5393L5.03906 30.9065L6.51562 25.7659L6.1875 25.219C4.82031 22.9768 4.05469 20.3518 4.05469 17.7268C4.05469 10.0159 10.2891 3.78149 18.0547 3.78149C21.7734 3.78149 25.2734 5.25806 27.8984 7.88306C30.5234 10.5081 32 14.0627 32 17.8362C32.1094 25.6565 25.7656 31.8909 18.0547 31.8909ZM25.7656 21.3909C25.3281 21.1721 23.3047 20.1331 22.8125 20.0784C22.4297 19.9143 22.1016 19.8596 21.8828 20.2971C21.6641 20.7346 20.7891 21.6096 20.5703 21.9377C20.3516 22.1565 20.1328 22.2659 19.6406 21.9924C19.2031 21.7737 17.8906 21.3909 16.25 19.8596C14.9922 18.7659 14.1172 17.3987 13.9531 16.9065C13.7344 16.469 13.8984 16.3049 14.1719 16.0315C14.3906 15.8127 14.6094 15.594 14.7734 15.2659C14.9922 15.0471 14.9922 14.8284 15.2109 14.5549C15.4297 14.3362 15.2656 14.0081 15.1562 13.7893C14.9922 13.5706 14.2266 11.4924 13.8438 10.6174C13.5156 9.74244 13.1328 9.9065 12.9141 9.9065C12.6953 9.9065 12.3672 9.9065 12.1484 9.9065C11.9297 9.9065 11.3828 9.96119 11.0547 10.4534C10.6719 10.8909 9.57812 11.9299 9.57812 14.0081C9.57812 16.0862 11.0547 18.0002 11.3281 18.3831C11.5469 18.6018 14.3359 22.9221 18.4922 24.7815C19.4766 25.219 20.2422 25.4924 20.8984 25.7112C21.8828 26.0393 22.8125 25.9299 23.5234 25.8752C24.3438 25.8206 25.9844 24.8909 26.3672 23.8518C26.6953 22.9221 26.6953 21.9924 26.5859 21.8284C26.4766 21.719 26.1484 21.5549 25.7656 21.3909Z" fill="#15171A"/>
</g>
<defs>
<clipPath id="clip0_4023_217">
<rect width="35" height="35" fill="white" transform="translate(0.5 0.5)"/>
</clipPath>
</defs>
</svg>
